REM SINGLE-DENSITY AREA
FILE "Propeller Arena (USA) (2001-09-11) (Prototype) (Track 1).bin" BINARY
  TRACK 01 MODE1/2352
    INDEX 01 00:00:00
FILE "Propeller Arena (USA) (2001-09-11) (Prototype) (Track 2).bin" BINARY
  TRACK 02 AUDIO
    INDEX 00 00:00:00
    INDEX 01 00:02:00
REM HIGH-DENSITY AREA
FILE "Propeller Arena (USA) (2001-09-11) (Prototype) (Track 3).bin" BINARY
  TRACK 03 MODE1/2352
    INDEX 01 00:00:00
